name C:\Users\r0593348\3dpredictsim\Results\Batchsim_tmt_linear_v2\Pog_s1_tmt_aCst_d05_k500_ig24.mot
datacolumns 128
datarows 4
range 0.00000000 0.03214449
endheader
time	pelvis_tilt	pelvis_list	pelvis_rotation	pelvis_tx	pelvis_ty	pelvis_tz	hip_flexion_l	hip_adduction_l	hip_rotation_l	hip_flexion_r	hip_adduction_r	hip_rotation_r	knee_angle_l	knee_angle_r	ankle_angle_l	ankle_angle_r	subtalar_angle_l	subtalar_angle_r	tmt_angle_l	tmt_angle_r	mtp_angle_l	mtp_angle_r	lumbar_extension	lumbar_bending	lumbar_rotation	arm_flex_l	arm_add_l	arm_rot_l	arm_flex_r	arm_add_r	arm_rot_r	elbow_flex_l	elbow_flex_r	pro_sup_l	pro_sup_r	glut_med1_l/activation	glut_med2_l/activation	glut_med3_l/activation	glut_min1_l/activation	glut_min2_l/activation	glut_min3_l/activation	semimem_l/activation	semiten_l/activation	bifemlh_l/activation	bifemsh_l/activation	sar_l/activation	add_long_l/activation	add_brev_l/activation	add_mag1_l/activation	add_mag2_l/activation	add_mag3_l/activation	tfl_l/activation	pect_l/activation	grac_l/activation	glut_max1_l/activation	glut_max2_l/activation	glut_max3_l/activation	iliacus_l/activation	psoas_l/activation	quad_fem_l/activation	gem_l/activation	peri_l/activation	rect_fem_l/activation	vas_med_l/activation	vas_int_l/activation	vas_lat_l/activation	med_gas_l/activation	lat_gas_l/activation	soleus_l/activation	tib_post_l/activation	flex_dig_l/activation	flex_hal_l/activation	tib_ant_l/activation	per_brev_l/activation	per_long_l/activation	per_tert_l/activation	ext_dig_l/activation	ext_hal_l/activation	ercspn_l/activation	intobl_l/activation	extobl_l/activation	glut_med1_r/activation	glut_med2_r/activation	glut_med3_r/activation	glut_min1_r/activation	glut_min2_r/activation	glut_min3_r/activation	semimem_r/activation	semiten_r/activation	bifemlh_r/activation	bifemsh_r/activation	sar_r/activation	add_long_r/activation	add_brev_r/activation	add_mag1_r/activation	add_mag2_r/activation	add_mag3_r/activation	tfl_r/activation	pect_r/activation	grac_r/activation	glut_max1_r/activation	glut_max2_r/activation	glut_max3_r/activation	iliacus_r/activation	psoas_r/activation	quad_fem_r/activation	gem_r/activation	peri_r/activation	rect_fem_r/activation	vas_med_r/activation	vas_int_r/activation	vas_lat_r/activation	med_gas_r/activation	lat_gas_r/activation	soleus_r/activation	tib_post_r/activation	flex_dig_r/activation	flex_hal_r/activation	tib_ant_r/activation	per_brev_r/activation	per_long_r/activation	per_tert_r/activation	ext_dig_r/activation	ext_hal_r/activation	ercspn_r/activation	intobl_r/activation	extobl_r/activation	
          0.00000000	         -2.91485425	          0.99814640	          4.78777945	          0.00000000	          0.87116979	         -0.00199235	        -17.35037597	          1.30460523	          6.36523905	         27.22960776	         -0.40599368	         -1.58069444	         -6.81976650	         -8.67041710	         -8.45610578	          6.20850511	          9.21119160	          3.97842943	          2.10473364	          0.06636802	         26.09426840	         -0.09738330	          0.55494043	         -3.05444204	         -1.65755552	          3.69771767	        -13.47818573	         12.31185492	         -9.19589898	        -13.44971923	         12.74483361	         26.44601016	         17.02739820	         86.51662706	         86.51662706	          0.29215345	          0.08875127	          0.07993299	          0.26499127	          0.15894002	          0.09021597	          0.05000195	          0.05000018	          0.05000015	          0.05000021	          0.09278268	          0.08293133	          0.05000071	          0.05000081	          0.05000209	          0.05000083	          0.22222948	          0.05143961	          0.05000103	          0.05000390	          0.05000227	          0.05000191	          0.30550208	          0.56797081	          0.05000045	          0.05000068	          0.06696280	          0.23603881	          0.09005651	          0.09156234	          0.07720734	          0.17704821	          0.25125089	          0.21622813	          0.19071822	          0.19702039	          0.25077937	          0.05000002	          0.09693266	          0.16090261	          0.05000016	          0.05000004	          0.05000015	          0.05000001	          0.05000003	          0.05000005	          0.12351710	          0.05000082	          0.07830665	          0.05000027	          0.05000036	          0.05000302	          0.05892894	          0.05892895	          0.05892897	          0.05000070	          0.05000255	          0.05431100	          0.05893008	          0.15437627	          0.13392453	          0.12217893	          0.05000266	          0.05002789	          0.05892556	          0.06945142	          0.10660374	          0.12368668	          0.05000030	          0.05000028	          0.14818066	          0.05000312	          0.06689564	          0.05000363	          0.09560598	          0.12785242	          0.06230284	          0.05892900	          0.05892897	          0.05892901	          0.05000030	          0.05000244	          0.05892406	          0.47661173	          0.27665039	          0.16955939	          0.22499478	          0.51024307	          0.26568167	          0.05000069	          0.13400629	          0.13400632	
          0.01071483	         -2.89585987	          1.03877735	          4.93744176	          0.01682576	          0.86993471	         -0.00183527	        -17.08290081	          1.17717403	          6.09303861	         26.67587664	         -0.24115309	         -1.35222692	         -9.07996609	         -8.75060073	         -9.13774982	          5.60017203	         10.27333444	          3.55080176	          1.90825011	          0.08885057	         26.84919193	         -0.08170711	          0.77319054	         -2.86026235	         -1.71090556	          3.44028279	        -13.50975958	         12.59685704	        -10.35023662	        -13.45266166	         12.56193839	         27.28247567	         17.06835682	         86.51662706	         86.51662706	          0.24788594	          0.07530355	          0.06782146	          0.22483947	          0.13485721	          0.07654634	          0.05000144	          0.05000017	          0.05000020	          0.05000016	          0.07872433	          0.15023225	          0.17507701	          0.10484435	          0.05000614	          0.05000090	          0.18855696	          0.09401666	          0.05000357	          0.05000196	          0.05000114	          0.05000133	          0.25921193	          0.48191103	          0.05782633	          0.05892991	          0.05892902	          0.20027383	          0.13400531	          0.13400661	          0.11369547	          0.15022158	          0.21318096	          0.18346490	          0.16182036	          0.16716783	          0.21278102	          0.05000002	          0.08224537	          0.13653954	          0.05000013	          0.05000007	          0.05000013	          0.05000310	          0.07619473	          0.05768042	          0.10480166	          0.05839880	          0.06644202	          0.05892816	          0.05077329	          0.05000159	          0.05000002	          0.05000009	          0.05000004	          0.05000007	          0.05000138	          0.05000037	          0.05000114	          0.20078507	          0.20171999	          0.13347898	          0.05000044	          0.05000123	          0.05000021	          0.05892914	          0.12206166	          0.15742496	          0.05000020	          0.05000026	          0.25949685	          0.11362930	          0.15522343	          0.07601349	          0.28481951	          0.30478411	          0.23517121	          0.05000000	          0.05000001	          0.05000000	          0.05000014	          0.05000198	          0.05000029	          0.57286341	          0.30419152	          0.18404008	          0.46700089	          0.56281163	          0.29998997	          0.05000002	          0.11370143	          0.11370147	
          0.02142966	         -2.87076276	          1.06511996	          5.06497253	          0.03387349	          0.86853108	         -0.00168992	        -16.72145099	          1.04462022	          5.81195563	         26.00044664	         -0.10516797	         -1.08351635	        -11.52028300	         -9.34340388	         -9.75458640	          4.94740648	         11.30081724	          3.10216790	          1.62423340	         -0.05014634	         27.14687843	         -0.12853933	          1.00485644	         -2.63881672	         -1.75356022	          3.12474574	        -13.54723876	         12.84110405	        -11.50516483	        -13.46673793	         12.44290513	         28.11310154	         17.09971302	         86.51662706	         86.51662706	          0.24737750	          0.06389346	          0.05754510	          0.19077160	          0.11442348	          0.06494795	          0.06346816	          0.05000023	          0.05000034	          0.05000006	          0.06679608	          0.15484960	          0.33148840	          0.08897996	          0.05893198	          0.12215973	          0.15998657	          0.07977193	          0.05000068	          0.05003554	          0.05872343	          0.05892824	          0.21993573	          0.42360801	          0.05001125	          0.05000124	          0.05000011	          0.16992802	          0.11370070	          0.11370178	          0.09646822	          0.12745976	          0.18087945	          0.15566600	          0.13730110	          0.14183841	          0.18054017	          0.05000064	          0.06978432	          0.14607793	          0.05000022	          0.16007567	          0.05000161	          0.05000026	          0.06464959	          0.06174838	          0.26899081	          0.18306937	          0.25807047	          0.05000036	          0.05000029	          0.24094967	          0.08037008	          0.05000032	          0.07814969	          0.05000011	          0.05000074	          0.06945278	          0.09645505	          0.17036207	          0.17115572	          0.13958577	          0.05000081	          0.06945091	          0.05000578	          0.05000032	          0.10356694	          0.13357189	          0.05579472	          0.05000219	          0.22017750	          0.09641213	          0.19628192	          0.06449581	          0.24166322	          0.25860274	          0.19953770	          0.05892903	          0.05892905	          0.05892901	          0.05661691	          0.05892907	          0.05892907	          0.48606227	          0.28244670	          0.15615432	          0.39624025	          0.58502259	          0.25453509	          0.05000002	          0.09647321	          0.09647324	
          0.03214449	         -2.84263957	          1.07766283	          5.16789595	          0.05092458	          0.86694628	         -0.00154869	        -16.26201077	          0.91211867	          5.52506464	         25.20315590	          0.02363214	         -0.79626988	        -14.12518352	         -9.95149291	        -10.18861411	          4.41569517	         12.25508915	          2.62642847	          1.25249212	         -0.01064460	         26.72416498	         -0.15570910	          1.22961637	         -2.39296804	         -1.78543976	          2.78723035	        -13.59126400	         13.05904738	        -12.61393906	        -13.49291820	         12.41558636	         28.92594840	         17.09208843	         86.51662706	         86.51662706	          0.20989453	          0.05421223	          0.05000001	          0.16186641	          0.09708590	          0.05510699	          0.08680383	          0.05000067	          0.05000044	          0.05000056	          0.05892912	          0.18193258	          0.30850513	          0.07549810	          0.05000409	          0.10365020	          0.13574523	          0.08184538	          0.05000100	          0.05000042	          0.05000028	          0.05000035	          0.18661074	          0.37737075	          0.05000003	          0.05000022	          0.05000020	          0.14418025	          0.09647261	          0.09647352	          0.08185122	          0.10814685	          0.15347232	          0.13207923	          0.11649708	          0.12034700	          0.15318455	          0.08578360	          0.09381243	          0.12394402	          0.09797245	          0.21839749	          0.10329502	          0.08630647	          0.05485378	          0.05239218	          0.32356341	          0.32247098	          0.37804848	          0.17411173	          0.17639280	          0.23442715	          0.06819247	          0.09300055	          0.07069896	          0.07854493	          0.05000131	          0.05892925	          0.08184006	          0.14454873	          0.19014022	          0.16800177	          0.05000021	          0.05892800	          0.08185521	          0.22440645	          0.18375291	          0.17814546	          0.05000013	          0.05000012	          0.18681591	          0.08180393	          0.19546886	          0.05472331	          0.20504605	          0.21941889	          0.16930346	          0.05000003	          0.05000006	          0.05000000	          0.05000000	          0.05000013	          0.05000010	          0.62104478	          0.30736249	          0.15736744	          0.64781418	          0.64928871	          0.42430677	          0.05000010	          0.08185544	          0.08185546	
